<svg xmlns="http://www.w3.org/2000/svg" width="600" height="400" viewBox="0 0 600 400"><rect width="100%" height="100%" fill="#DDDDDD"/><path fill="#999999" d="M127.725 179.24v33.98h-6.35v-33.98h6.35Zm12.48 33.98h-5.81v-24.11h3.55q1.13 0 1.48 1.06l.38 1.78q.63-.7 1.33-1.29.69-.59 1.48-1.01.78-.42 1.69-.67.9-.25 1.98-.25 2.28 0 3.75 1.24 1.47 1.23 2.2 3.27.56-1.19 1.41-2.05.85-.86 1.86-1.4 1.01-.54 2.15-.8t2.29-.26q2 0 3.55.61 1.55.61 2.61 1.79 1.05 1.18 1.6 2.87.56 1.69.56 3.87v15.35h-5.81v-15.35q0-2.3-1.01-3.46-1.01-1.17-2.96-1.17-.89 0-1.66.31-.76.31-1.34.88-.57.58-.9 1.45-.33.87-.33 1.99v15.35h-5.83v-15.35q0-2.42-.97-3.52-.98-1.11-2.86-1.11-1.27 0-2.36.63-1.09.62-2.03 1.7v17.65Zm46.29-6.23v-4.06q-2.51.11-4.23.43-1.71.32-2.75.81-1.03.5-1.48 1.15-.44.66-.44 1.44 0 1.53.9 2.18.91.66 2.36.66 1.79 0 3.09-.65 1.31-.64 2.55-1.96Zm-12.26-12.66-1.04-1.86q4.16-3.81 10.01-3.81 2.12 0 3.79.7 1.67.69 2.82 1.92 1.15 1.24 1.75 2.95.6 1.72.6 3.76v15.23h-2.64q-.82 0-1.26-.25-.45-.24-.71-1l-.52-1.73q-.91.82-1.78 1.44t-1.81 1.05q-.94.42-2.01.64-1.07.23-2.36.23-1.53 0-2.82-.42-1.3-.41-2.24-1.23-.94-.82-1.45-2.04-.52-1.23-.52-2.85 0-.91.31-1.82.3-.9.99-1.73.7-.82 1.8-1.55 1.11-.72 2.72-1.27 1.61-.54 3.75-.88 2.13-.34 4.88-.41v-1.41q0-2.42-1.03-3.58-1.03-1.17-2.99-1.17-1.41 0-2.33.33-.93.33-1.64.74-.7.42-1.28.74-.57.33-1.28.33-.61 0-1.03-.31-.43-.32-.68-.74Zm32.19 6.25q1.08 0 1.88-.3.8-.29 1.33-.81.53-.51.8-1.24t.27-1.6q0-1.79-1.07-2.83-1.07-1.05-3.21-1.05-2.14 0-3.21 1.05-1.07 1.04-1.07 2.83 0 .85.27 1.57.27.73.8 1.26t1.34.82q.81.3 1.87.3Zm6.56 13.72q0-.7-.43-1.15-.42-.45-1.15-.69-.73-.25-1.7-.37-.98-.12-2.07-.17-1.09-.06-2.25-.11-1.17-.05-2.27-.19-.97.54-1.57 1.27-.59.73-.59 1.69 0 .64.31 1.19.32.55 1.01.95.7.4 1.8.62 1.11.23 2.7.23 1.63 0 2.8-.25 1.18-.25 1.94-.68.76-.44 1.12-1.03.35-.6.35-1.31Zm-1.15-24.37h6.93v2.16q0 1.04-1.25 1.27l-2.16.4q.49 1.25.49 2.73 0 1.78-.71 3.23-.72 1.44-1.99 2.46-1.27 1.01-2.99 1.56-1.73.55-3.73.55-.7 0-1.36-.07-.66-.07-1.29-.19-1.13.68-1.13 1.53 0 .73.67 1.07.67.34 1.77.48 1.11.14 2.52.18 1.41.03 2.89.15 1.48.12 2.89.41 1.41.29 2.51.93 1.11.63 1.78 1.73.67 1.09.67 2.8 0 1.6-.79 3.11-.79 1.5-2.28 2.68-1.49 1.17-3.67 1.89-2.17.71-4.94.71-2.73 0-4.75-.53-2.02-.52-3.36-1.41-1.34-.88-2-2.03-.66-1.15-.66-2.39 0-1.7 1.03-2.84 1.02-1.14 2.8-1.82-.96-.49-1.52-1.31-.57-.83-.57-2.17 0-.54.2-1.11.2-.58.59-1.14.39-.57.97-1.07.59-.51 1.39-.91-1.83-.98-2.88-2.63-1.04-1.64-1.04-3.85 0-1.79.71-3.23.72-1.45 2-2.47 1.28-1.02 3.03-1.56 1.75-.54 3.82-.54 1.55 0 2.92.31 1.36.32 2.49.93Zm15.18 8.46h10.95q0-1.13-.32-2.13-.32-.99-.95-1.75-.64-.75-1.61-1.18-.98-.44-2.27-.44-2.51 0-3.96 1.44-1.44 1.43-1.84 4.06Zm14.8 3.5h-14.92q.14 1.86.66 3.21.51 1.35 1.36 2.23.85.88 2.01 1.32 1.16.43 2.57.43t2.44-.32q1.02-.33 1.78-.73.77-.4 1.34-.73.58-.33 1.12-.33.73 0 1.08.54l1.67 2.11q-.97 1.13-2.17 1.9-1.19.76-2.5 1.22-1.3.46-2.65.64-1.35.19-2.62.19-2.52 0-4.68-.83-2.16-.84-3.76-2.47-1.6-1.63-2.51-4.04-.92-2.41-.92-5.58 0-2.47.8-4.64.8-2.18 2.29-3.79 1.49-1.61 3.64-2.55 2.15-.94 4.85-.94 2.28 0 4.21.73 1.93.73 3.31 2.13 1.39 1.4 2.18 3.43.79 2.03.79 4.64 0 1.32-.29 1.77-.28.46-1.08.46Zm41.13-22.65h5.57v33.98h-3.25q-.75 0-1.25-.25-.51-.24-.98-.83l-17.74-22.65q.14 1.55.14 2.86v20.87h-5.57v-33.98h3.31q.4 0 .7.03.29.04.51.15.23.1.44.3.21.2.47.53l17.81 22.75q-.07-.82-.12-1.62-.04-.8-.04-1.48v-20.66Zm22.89 9.49q2.68 0 4.87.87 2.2.87 3.76 2.47 1.57 1.6 2.41 3.9.85 2.3.85 5.15 0 2.86-.85 5.17-.84 2.3-2.41 3.92-1.56 1.62-3.76 2.49-2.19.87-4.87.87-2.71 0-4.92-.87-2.2-.87-3.77-2.49-1.56-1.62-2.42-3.92-.86-2.31-.86-5.17 0-2.85.86-5.15.86-2.3 2.42-3.9 1.57-1.6 3.77-2.47 2.21-.87 4.92-.87Zm0 20.38q3 0 4.45-2.02 1.44-2.02 1.44-5.93 0-3.9-1.44-5.94-1.45-2.05-4.45-2.05-3.06 0-4.53 2.06-1.47 2.06-1.47 5.93 0 3.88 1.47 5.91 1.47 2.04 4.53 2.04Zm24.37 4.49q-3.15 0-4.83-1.78-1.68-1.77-1.68-4.9v-13.46h-2.47q-.47 0-.8-.31-.33-.3-.33-.92v-2.3l3.88-.63 1.22-6.58q.12-.47.45-.73t.84-.26h3.01v7.59h6.44v4.14h-6.44v13.06q0 1.13.55 1.77.56.63 1.52.63.54 0 .9-.13.37-.13.64-.27t.48-.27q.21-.13.42-.13.26 0 .43.13.16.13.35.39l1.74 2.82q-1.27 1.06-2.92 1.6-1.64.54-3.4.54Zm43.21-29.33h-15.08v10.06h12.73v5.05h-12.73v13.84h-6.35v-33.98h21.43v5.03Zm14.92 4.46q2.68 0 4.88.87 2.2.87 3.76 2.47 1.56 1.6 2.41 3.9.85 2.3.85 5.15 0 2.86-.85 5.17-.85 2.3-2.41 3.92t-3.76 2.49q-2.2.87-4.88.87-2.7 0-4.91-.87t-3.77-2.49q-1.56-1.62-2.42-3.92-.86-2.31-.86-5.17 0-2.85.86-5.15.86-2.3 2.42-3.9t3.77-2.47q2.21-.87 4.91-.87Zm0 20.38q3.01 0 4.46-2.02 1.44-2.02 1.44-5.93 0-3.9-1.44-5.94-1.45-2.05-4.46-2.05-3.05 0-4.52 2.06-1.47 2.06-1.47 5.93 0 3.88 1.47 5.91 1.47 2.04 4.52 2.04Zm31.31-20h5.8v24.11h-3.55q-1.15 0-1.45-1.06l-.4-1.92q-1.48 1.5-3.27 2.43-1.79.93-4.21.93-1.97 0-3.49-.67-1.51-.67-2.55-1.9-1.03-1.22-1.56-2.9t-.53-3.7v-15.32h5.81v15.32q0 2.21 1.02 3.42t3.07 1.21q1.5 0 2.82-.67 1.31-.67 2.49-1.84v-17.44Zm16.56 1.06.4 1.9q.73-.73 1.54-1.35.81-.62 1.72-1.06.9-.43 1.94-.68 1.03-.25 2.25-.25 1.98 0 3.5.67 1.53.67 2.55 1.88 1.03 1.21 1.56 2.89.52 1.68.52 3.7v15.35h-5.8v-15.35q0-2.2-1.01-3.41-1.01-1.22-3.08-1.22-1.5 0-2.82.69-1.32.68-2.49 1.85v17.44h-5.8v-24.11h3.54q1.13 0 1.48 1.06Zm36.62 15.91v-10.81q-.99-1.2-2.15-1.7-1.17-.49-2.51-.49-1.31 0-2.37.49-1.06.5-1.81 1.5-.75.99-1.15 2.53-.4 1.54-.4 3.64 0 2.11.34 3.58.34 1.47.98 2.4.63.92 1.55 1.34.91.41 2.04.41 1.81 0 3.08-.76 1.27-.75 2.4-2.13Zm0-27.78h5.8v34.92h-3.55q-1.15 0-1.45-1.06l-.5-2.32q-1.45 1.66-3.35 2.7-1.89 1.03-4.4 1.03-1.98 0-3.62-.82-1.65-.82-2.83-2.39-1.19-1.56-1.84-3.86-.64-2.3-.64-5.26 0-2.68.73-4.99.72-2.3 2.09-3.99 1.36-1.69 3.26-2.65 1.91-.95 4.28-.95 2.02 0 3.46.64 1.43.63 2.56 1.71V178.3Z"/></svg>